<svg width="305" height="305" viewBox="0 0 305 305" fill="none" xmlns="http://www.w3.org/2000/svg">
	<mask id="mask0_101_1593" style="mask-type:alpha" maskUnits="userSpaceOnUse" x="0" y="0" width="305" height="305">
		<path d="M0 152.5C0 26.9162 26.9162 0 152.5 0C278.084 0 305 26.9162 305 152.5C305 278.084 278.084 305 152.5 305C26.9162 305 0 278.084 0 152.5Z" fill="#C4C4C4"/>
	</mask>
	<g mask="url(#mask0_101_1593)">
		<rect width="305" height="305" transform="translate(-1)" fill="#FACA30"/>
	</g>
	<g clip-path="url(#clip0_101_1593)">
		<path d="M154.664 168.087C160.945 169.835 166.772 172.771 171.937 176.722L228.294 157.913C231.225 156.934 232.795 153.753 231.818 150.851L210.741 87.5016C209.764 84.5648 206.589 82.9916 203.692 83.9705L182.371 91.1025L193.921 125.854L172.74 132.881L161.189 98.1297L139.693 105.297C136.762 106.276 135.192 109.457 136.169 112.359L154.664 168.087ZM252.721 185.112L249.161 174.484C248.184 171.548 245.009 169.974 242.113 170.953L167.61 195.845C161.608 188.154 152.395 183.12 141.961 182.91L107.275 78.6564C105.74 74.0766 101.482 71 96.6667 71H57.5833C54.5125 71 52 73.5172 52 76.5937V87.7812C52 90.8578 54.5125 93.375 57.5833 93.375H88.6057L120.78 190.112C111.672 197.244 106.228 208.851 108.217 221.752C110.346 235.526 121.443 247.028 135.192 249.441C156.199 253.181 174.38 237.274 174.764 217.067L249.196 192.175C252.093 191.196 253.698 188.049 252.721 185.112ZM141.333 233.219C132.086 233.219 124.583 225.702 124.583 216.437C124.583 207.173 132.086 199.656 141.333 199.656C150.581 199.656 158.083 207.173 158.083 216.437C158.083 225.702 150.581 233.219 141.333 233.219Z" fill="black"/>
	</g>
	<defs>
		<clipPath id="clip0_101_1593">
			<rect width="201" height="179" fill="white" transform="translate(52 71)"/>
		</clipPath>
	</defs>
</svg>
