<?xml version="1.0" encoding="UTF-8"?>
<svg width="83px" height="83px" viewBox="0 0 83 83" version="1.1" xmlns="http://www.w3.org/2000/svg" xmlns:xlink="http://www.w3.org/1999/xlink">
    <!-- Generator: Sketch 43.2 (39069) - http://www.bohemiancoding.com/sketch -->
    <title>Untitled 2</title>
    <desc>Created with Sketch.</desc>
    <defs></defs>
    <g id="Page-1" stroke="none" stroke-width="1" fill="none" fill-rule="evenodd">
        <g id="if_globe_1055048" fill-rule="nonzero">
            <g id="Group" opacity="0.2" transform="translate(9.990824, 11.688011)" fill="#231F20">
                <g id="Shape">
                    <path d="M30.5719032,0.190286742 C13.6878748,0.190286742 0,14.2288875 0,31.5455372 C0,48.8621869 13.6878748,62.9007877 30.5719032,62.9007877 C47.4559316,62.9007877 61.1438064,48.8621869 61.1438064,31.5455372 C61.1438064,14.2288875 47.4559316,0.190286742 30.5719032,0.190286742 Z M5.63217835,18.441893 C5.92400106,19.6447944 5.34035564,21.8054562 4.89011488,24.909626 C4.364834,28.5297322 7.17883873,27.7472762 7.08434375,31.1706995 C6.98984878,34.5941227 9.56483681,36.0136604 9.22993551,36.3557177 C8.89642383,36.697775 7.56098752,37.1866318 9.56344718,41.6390774 C11.5659068,46.0900977 13.2834919,47.411294 13.5225086,49.8071201 C13.7615253,52.2043716 16.3365134,55.7261363 16.3365134,55.7261363 L16.4796455,56.3845966 C8.15019147,51.394836 2.5388576,42.13221 2.5388576,31.5455372 C2.5388576,26.826572 3.66029059,22.3741265 5.63217835,18.441893 Z M19.4840298,57.0459073 C19.3408977,56.4102508 19.6271619,52.9854024 23.6334708,51.6171732 C27.6397798,50.2475189 26.9713668,48.4374658 28.163671,46.6772961 C29.3559752,44.9171263 29.5949919,43.5959301 27.3048785,43.0571899 C25.0161546,42.5184496 22.6315462,42.1279343 20.5804494,38.8014272 C18.5293526,35.4749202 15.6681004,35.378004 14.1422845,34.3504069 C12.6164686,33.3228098 11.3755273,33.5194928 9.51619969,33.2743517 C7.65687212,33.0292107 8.27664798,27.6988181 8.37114295,26.5244214 C8.46702756,25.3500248 7.22608621,26.9163621 6.32004617,26.1025508 C5.41400613,25.2887395 7.17883873,21.4862028 8.94367132,21.6330024 C10.7085039,21.7798019 10.2791076,22.6605994 10.6126193,24.6659102 C10.946131,26.671221 11.5659068,26.1823641 11.7090389,25.5467077 C11.852171,24.9110513 11.9480556,22.2202007 12.5678315,21.3892865 C13.1876073,20.5583724 13.3307394,18.3079206 15.3345887,18.4048368 C17.3370484,18.5031783 17.2898009,16.5463256 18.7683693,17.181982 C20.2469377,17.8176385 21.2961099,17.3287816 20.3428223,16.4978675 C19.3895348,15.6669533 19.913426,14.834614 21.5351265,15.3733542 C23.1568271,15.9120944 23.251322,12.9761027 22.9664475,11.4596488 C22.6801833,9.94319488 21.4878791,9.50279613 20.0093107,10.4320517 C18.5307422,11.3613073 17.4343226,10.970792 18.1972306,9.40445467 C18.9601385,7.83954262 21.9645228,9.15931362 23.7766029,9.94319488 C25.588683,10.7256509 26.0653268,7.88942597 25.0647917,6.51977162 C24.0628671,5.15011727 24.0156196,5.78577371 21.1543674,5.98103141 C20.0148692,6.05941954 20.1315983,5.43088929 20.6846718,4.64700803 C23.761317,3.45265803 27.0936544,2.79419777 30.5732928,2.79419777 C34.0960099,2.79419777 37.4658674,3.46976089 40.5744741,4.69261566 C40.9663503,5.25415969 41.1247683,5.69598368 40.8524005,5.88268994 C39.7073437,6.66514597 38.7068087,5.96677902 39.0403204,8.15024465 C39.3738321,10.3337103 40.9482851,12.9276446 42.1878368,12.0710762 C43.4273885,11.2145078 45.5743699,12.2905629 43.7136527,13.4649596 C41.8543251,14.6393563 41.3290442,14.5410148 40.4702517,15.3234708 C39.6114591,16.1059268 39.9936079,15.7154114 40.8524005,16.6931252 C41.711193,17.6708389 41.6153084,17.8675218 40.4230042,18.3563787 C39.2307,18.8452355 38.5150395,19.9212907 39.6600963,21.1441455 C40.805153,22.3670003 41.5680609,23.3945973 42.8548601,21.1441455 C44.143049,18.8936937 44.380676,16.9382662 45.4784853,17.5240393 C46.5749049,18.1112376 47.8158463,19.9212907 48.6260017,18.8936937 C49.4361571,17.8660966 49.293025,17.181982 50.3908343,17.964438 C51.4872539,18.7468941 55.5422,18.7953522 52.8226902,20.8505463 C50.1045701,22.9043152 50.5812139,23.7851127 49.293025,23.5413969 C48.0048362,23.2962559 42.1864472,22.024943 40.8510108,25.35145 C39.5155745,28.677957 34.650473,31.3189243 37.1782136,34.5470898 C39.7059541,37.7752554 39.1334257,40.1226235 42.7575859,40.6129056 C46.3817461,41.1017624 48.2424633,39.4385089 49.1485033,41.1516458 C50.0545433,42.8647826 49.3388829,43.0600403 49.38752,45.6511242 C49.4111437,46.9366895 50.0795567,49.35817 50.7465801,51.4789251 C45.6438515,56.9090844 38.4886365,60.2983019 30.5719032,60.2983019 C26.5864387,60.2983019 22.7941331,59.4346073 19.3575733,57.8896486 C19.460406,57.4834556 19.513212,57.175604 19.4840298,57.0459073 Z"></path>
                </g>
                <g transform="translate(26.403007, 3.163335)" id="Shape">
                    <path d="M4.28840424,5.99597903 C5.16665164,5.45438834 5.24169177,6.19123673 6.00459972,3.69706908 C6.76750767,1.20290143 3.1433475,0.859418911 1.4257624,1.15301807 C-0.290433081,1.44661724 0.472474868,2.18061515 0.472474868,2.18061515 C1.04500324,3.10987075 1.42298313,6.53329401 0.398824374,7.80603213 C-0.623944752,9.07734501 1.23538282,9.32248606 2.04553825,8.14808941 C2.85847295,6.97369275 3.33789598,6.58175212 4.28840424,5.99597903 Z"></path>
                </g>
            </g>
            <g id="Group" transform="translate(9.990824, 9.150391)" fill="#FFFFFF">
                <path d="M30.5719032,0.123995763 C13.6878748,0.123995763 0,14.1625965 0,31.4792462 C0,48.7958959 13.6878748,62.8344967 30.5719032,62.8344967 C47.4559316,62.8344967 61.1438064,48.7958959 61.1438064,31.4792462 C61.1438064,14.1625965 47.4559316,0.123995763 30.5719032,0.123995763 Z M5.63217835,18.375602 C5.92400106,19.5785034 5.34035564,21.7391653 4.89011488,24.843335 C4.364834,28.4634412 7.17883873,27.6809852 7.08434375,31.1044085 C6.98984878,34.5278317 9.56483681,35.9473694 9.22993551,36.2894267 C8.89642383,36.631484 7.56098752,37.1203408 9.56344718,41.5727864 C11.5659068,46.0238067 13.2834919,47.345003 13.5225086,49.7408292 C13.7615253,52.1380806 16.3365134,55.6598453 16.3365134,55.6598453 L16.4796455,56.3183056 C8.15019147,51.328545 2.5388576,42.065919 2.5388576,31.4792462 C2.5388576,26.760281 3.66029059,22.3078355 5.63217835,18.375602 Z M19.4840298,56.9796163 C19.3408977,56.3439599 19.6271619,52.9191114 23.6334708,51.5508823 C27.6397798,50.1812279 26.9713668,48.3711748 28.163671,46.6110051 C29.3559752,44.8508353 29.5949919,43.5296391 27.3048785,42.9908989 C25.0161546,42.4521587 22.6315462,42.0616433 20.5804494,38.7351362 C18.5293526,35.4086292 15.6681004,35.311713 14.1422845,34.2841159 C12.6164686,33.2565188 11.3755273,33.4532018 9.51619969,33.2080607 C7.65687212,32.9629197 8.27664798,27.6325271 8.37114295,26.4581304 C8.46702756,25.2837338 7.22608621,26.8500711 6.32004617,26.0362598 C5.41400613,25.2224485 7.17883873,21.4199118 8.94367132,21.5667114 C10.7085039,21.713511 10.2791076,22.5943084 10.6126193,24.5996192 C10.946131,26.60493 11.5659068,26.1160732 11.7090389,25.4804167 C11.852171,24.8447603 11.9480556,22.1539097 12.5678315,21.3229956 C13.1876073,20.4920814 13.3307394,18.2416296 15.3345887,18.3399711 C17.3370484,18.4383125 17.2898009,16.4814598 18.7683693,17.1171163 C20.2469377,17.7527727 21.2961099,17.2639159 20.3428223,16.4330017 C19.3895348,15.6020876 19.913426,14.7697482 21.5351265,15.3084884 C23.1568271,15.8472286 23.251322,12.911237 22.9664475,11.3947831 C22.6801833,9.87832914 21.4878791,9.43793039 20.0093107,10.367186 C18.5307422,11.2964416 17.4343226,10.9059262 18.1972306,9.33958893 C18.9601385,7.77467688 21.9645228,9.09444788 23.7766029,9.87832914 C25.588683,10.6607852 26.0653268,7.82456023 25.0647917,6.45490588 C24.0628671,5.08525153 24.0156196,5.72090797 21.1543674,5.91616567 C20.0148692,5.9945538 20.1315983,5.36602355 20.6846718,4.58214229 C23.761317,3.38779229 27.0936544,2.72933203 30.5732928,2.72933203 C34.0960099,2.72933203 37.4658674,3.40489515 40.5744741,4.62774992 C40.9663503,5.18929395 41.1247683,5.63111794 40.8524005,5.8178242 C39.7073437,6.60028023 38.7068087,5.90191328 39.0403204,8.08537891 C39.3738321,10.2688445 40.9482851,12.8627789 42.1878368,12.0062105 C43.4273885,11.149642 45.5743699,12.2256972 43.7136527,13.4000939 C41.8543251,14.5744905 41.3290442,14.4761491 40.4702517,15.2586051 C39.6114591,16.0410611 39.9936079,15.6505457 40.8524005,16.6282594 C41.711193,17.6059731 41.6153084,17.8026561 40.4230042,18.2915129 C39.2307,18.7803698 38.5150395,19.856425 39.6600963,21.0792798 C40.805153,22.3021345 41.5680609,23.3297316 42.8548601,21.0792798 C44.143049,18.8288279 44.380676,16.8734005 45.4784853,17.4591736 C46.5749049,18.0463719 47.8158463,19.856425 48.6260017,18.8288279 C49.4361571,17.8012308 49.293025,17.1171163 50.3908343,17.8995723 C51.4872539,18.6820283 55.5422,18.7304864 52.8226902,20.7856806 C50.1045701,22.8394495 50.5812139,23.720247 49.293025,23.4765312 C48.0048362,23.2313901 42.1864472,21.9600772 40.8510108,25.2865843 C39.5155745,28.6130913 34.650473,31.2540585 37.1782136,34.4822241 C39.7059541,37.7103897 39.1334257,40.0577577 42.7575859,40.5480398 C46.3817461,41.0368967 48.2424633,39.3736432 49.1485033,41.08678 C50.0545433,42.7984917 49.3388829,42.9951746 49.38752,45.5862585 C49.4111437,46.8718237 50.0795567,49.2933042 50.7465801,51.4140594 C45.6438515,56.8442186 38.4886365,60.2334362 30.5719032,60.2334362 C26.5864387,60.2334362 22.7941331,59.3697415 19.3575733,57.8247828 C19.460406,57.4171646 19.513212,57.109313 19.4840298,56.9796163 Z" id="Shape"></path>
                <path d="M30.6914116,9.09302264 C31.569659,8.55143195 31.6446991,9.28828033 32.407607,6.79411268 C33.170515,4.29994503 29.5463548,3.95646251 27.8287697,4.25006168 C26.1125742,4.54366084 26.8754822,5.27765875 26.8754822,5.27765875 C27.4480106,6.20691436 27.8259904,9.63033761 26.8018317,10.9030757 C25.7790626,12.1743886 27.6383901,12.4195297 28.4485456,11.245133 C29.258701,10.0707364 29.7409033,9.67879573 30.6914116,9.09302264 Z" id="Shape"></path>
            </g>
        </g>
    </g>
</svg>